# xmcd CD database file
#
# Track frame offsets:
#	150
#	23041
#	35241
#	70977
#	89180
#	121939
#	150850
#	173332
#	226982
#
# Disc length: 3171 seconds
#
# Revision: 0
# Processed by: cddbd v1.5.1PL0 Copyright (c) Steve Scherf et al.
# Submitted via: CDex 1.51
#
DISCID=690c6109
DTITLE=Chuchito Valdes Jr. - Yo Tengo Mi Tumbao
DYEAR=2002
DGENRE=Jazz
TTITLE0=Yo Tengo Mi Tumbao
TTITLE1=El Jamaiquino
TTITLE2=Africa
TTITLE3=Serenata en Batanga
TTITLE4=La Comparsa
TTITLE5=Montuneando
TTITLE6=Chuchumbek
TTITLE7=Descarga Cubano (El Manicero)
TTITLE8=La Conga
EXTD=YEAR: 2002
EXTT0=
EXTT1=
EXTT2=
EXTT3=
EXTT4=
EXTT5=
EXTT6=
EXTT7=
EXTT8=
PLAYORDER=
